<svg xmlns="http://www.w3.org/2000/svg" viewBox="0 0 280 280">
  <path fill="#ced0df" d="M103.99 140.55c5.01-1.34-.76-12.49-1.65-15.56s-4.82-20.75-2.93-22.19c1.35-1.02 7.41-3.45 9.35-4.18 23.72-9.03 49.65-7.09 72.15 4.33-.56 23.88-11.5 47.32-29.39 63-1.75 1.54-9.31 7.62-10.96 8.2-1.24.44-3.84-1.75-5.06-2.57-5.86-3.99-11.29-9.33-15.95-14.64-2.97-3.39-5.23-9.75-10.64-7.11.14-1.26-4.57-7.32-4.92-9.29Z"/>
  <path fill="#b194f1" d="M169.54 49.33c.45 2.25 5.17 7.33 4.92 9.29-.16 1.21-2.09 1.84-1.62 5.15s4.3 10.62 5.4 14.83c1.25 4.81 2.26 10.01 2.23 14.97-21.7-9.77-45.98-11.71-68.81-4.64-4.28 1.33-8.27 3.38-12.56 4.64 2.72-26.72 17.55-52.75 41.15-65.98 9.69 5.44 17.37 13.53 24.4 22 1.12.53 3.94.36 4.91-.26Z"/>
  <path fill="#fdde6a" d="M226.25 177.05c-23.9 12.44-53.09 14.1-77.47 1.99l15.02-13.37c14.56-15.9 23.36-35.79 25.4-57.36 22.31 15.2 36.82 41.51 37.04 68.73Z"/>
  <path fill="#6ce29d" d="M74.5 193.53c.54 2.79 2.18 5.73 3.54 8.2 22.21 40.55 71.39 57.91 114.42 40.12 3.94-1.63 7.53-4 11.49-5.17-10.17 15.09-36.61 26.44-54.35 28.4-47.77 5.27-92.26-30.56-95.3-78.64 6.57 2.35 13.37 5.62 20.21 7.1Z"/>
  <path fill="#b2e4fd" d="M103.99 140.55c.34 1.96 5.05 8.02 4.92 9.29-.22 2.04-3.07 1.52-.45 6.18 2.88 5.13 11.15 13.4 15.74 17.3-1.81.91-4.84.67-6.85.57-21.31-1.04-42.46-8.59-58.69-22.42.15-.45-.03-1.34.27-2.16 5.99-16.53 17.45-30.85 31.69-40.98.63 5.18 5.24 30.01 9.56 31.94.8.36 3.02.5 3.82.28Z"/>
  <path fill="#020202" d="M279.86 91.94c-.31 5.7.43 11.83 0 17.48-2.18 28.93-20.37 57.37-45.07 72.09-.67 10.67-2.32 21.45-6.27 31.42-1.25 3.15-2.74 7.78-7.11 5.73-4.88-2.3-.38-9.06.69-12.69 1.85-6.3 3.74-12.93 3.68-19.53-23.57 11.01-50.67 11.87-74.97 2.6-3.61-1.37-6.97-3.34-10.55-4.78-20.17 9.91-43.56 14.07-65.77 9.28-6.84-1.47-13.64-4.75-20.21-7.1 3.04 48.08 47.53 83.92 95.3 78.64 17.74-1.96 44.18-13.31 54.35-28.4.12-.18.38-.35.55-.55.2-.15.35-.4.55-.55 3.31-2.47 6.42-11.29 11.47-7.1 4.18 3.46-2.6 10.19-5.18 13.12-57.35 65-163.6 25.22-166.04-60.1-14.63-8.83-27.04-22.01-34.78-37.31-1.3-2.57-6.62-12.26-1.55-13.47 1.11-.26 3.86-.04 4.76.71s4.91 10.18 6.07 12.22c6.27 11.11 15.21 20.57 25.49 28.03 1.23-3.81 1.32-8.02 2.18-12.02.95-4.43 2.53-10.54 4.1-14.74 6.99-18.76 22.07-36.07 39.05-46.43.91-30.52 16.48-58.51 41.24-75.91-27.42-12.18-59.19-10.53-84.4 5.99-4.76 3.12-17.23 13.2-19.37 18.04C14.45 62.07 7.39 84.77 8.38 105.35c.19 3.96 3.47 14.12-2.16 15S.44 112.04.2 108.07c-4.62-75.25 73-125.69 139.66-90.54 55.57-29.82 124.97 1.82 138.1 63.47l1.91 10.93ZM169.54 49.33c-.96.62-3.78.79-4.91.26-7.03-8.47-14.71-16.55-24.4-22-23.6 13.23-38.43 39.25-41.15 65.98 4.29-1.26 8.28-3.31 12.56-4.64 22.83-7.07 47.11-5.13 68.81 4.64.04-4.96-.97-10.17-2.23-14.97-1.1-4.21-4.94-11.64-5.4-14.83s1.46-3.94 1.62-5.15c5.78-1.27 6.88 3.68 8.61 8.05 4 10.1 5.77 21.01 6.41 31.82 25.92 16.05 40.9 41.16 44.49 71.3.07.55.23 1.89.84 1.88.47 0 6.5-4.94 7.38-5.72 24.73-21.7 35.11-56.21 26.35-88.09-13.95-50.85-71.73-78.15-119.73-55.02 6.62 5.65 14.5 11.47 19.63 18.59 1.39 1.93 4.08 5.98 1.12 7.9m-60.63 100.5c5.41-2.64 7.67 3.72 10.64 7.11 4.66 5.31 10.08 10.65 15.95 14.64 1.21.83 3.81 3.01 5.06 2.57 1.65-.58 9.21-6.66 10.96-8.2 17.9-15.68 28.83-39.13 29.39-63-22.5-11.42-48.43-13.36-72.15-4.33-1.94.74-8 3.16-9.35 4.18-1.89 1.44 2.04 19.13 2.93 22.19s6.66 14.22 1.65 15.56c-.8.21-3.01.08-3.82-.28-4.32-1.93-8.93-26.76-9.56-31.94-14.23 10.13-25.7 24.45-31.69 40.98-.3.82-.12 1.71-.27 2.16-.07.2-.71.69-.95 1.48-2.39 7.69-3.8 15.78-3.98 23.83 23.86 13 52.82 13.53 77.58 2.54.23-1-.34-1.06-.9-1.54-1.75-1.5-4.41-2.94-6.19-4.46-4.59-3.91-12.86-12.17-15.74-17.3-2.62-4.66.23-4.14.45-6.18Zm117.34 27.22c-.22-27.22-14.73-53.53-37.04-68.73-2.04 21.56-10.83 41.45-25.4 57.36l-15.02 13.37c24.37 12.11 53.56 10.45 77.47-1.99Z"/>
  <path fill="#83dbfd" d="M124.2 173.32c1.79 1.52 4.45 2.96 6.19 4.46.57.49 1.14.54.9 1.54-24.75 10.99-53.71 10.45-77.58-2.54.19-8.05 1.59-16.14 3.98-23.83.25-.79.89-1.28.95-1.48 16.23 13.82 37.38 21.38 58.69 22.42 2.02.1 5.04.34 6.85-.57Z"/>
  <path fill="#7fef9c" d="M74.5 193.53c22.21 4.79 45.61.63 65.77-9.28 3.58 1.44 6.94 3.41 10.55 4.78 24.3 9.27 51.4 8.41 74.97-2.6.07 6.6-1.82 13.24-3.68 19.53-1.07 3.63-5.57 10.39-.69 12.69l-4.92 9.83c-5.05-4.19-8.16 4.63-11.47 7.1-.21.16-.37.35-.55.55s-.43.37-.55.55c-3.96 1.17-7.55 3.54-11.49 5.17-43.03 17.8-92.21.43-114.42-40.12-1.36-2.48-2.99-5.42-3.54-8.2Z"/>
  <path fill="#fdcc4a" d="M204.49 236.13c.17-.19.34-.39.55-.55-.2.15-.35.39-.55.55"/>
  <path fill="#1941da" d="M51.56 144.92c-1.57 4.2-3.16 10.31-4.1 14.74-.85 4-.95 8.21-2.18 12.02-10.29-7.46-19.23-16.92-25.49-28.03-1.15-2.05-5.2-11.51-6.07-12.22s-3.66-.97-4.76-.71l-2.73-10.38c5.64-.88 2.35-11.04 2.16-15-.99-20.58 6.06-43.28 19.69-58.74-4.36 9.81-5.47 29.48-4.36 40.14 2.22 21.43 12.36 43.24 27.85 58.17Z"/>
  <path fill="#fd6966" d="M174.45 58.62c.25-1.96-4.47-7.04-4.92-9.29 2.97-1.92.28-5.96-1.12-7.9-5.13-7.13-13.01-12.95-19.63-18.59C196.78-.3 254.55 27 268.53 77.86c8.76 31.88-1.63 66.39-26.35 88.09-.88.77-6.92 5.71-7.38 5.72-.61 0-.77-1.33-.84-1.88-3.59-30.14-18.57-55.25-44.49-71.3-.64-10.81-2.41-21.72-6.41-31.82-1.73-4.37-2.83-9.31-8.61-8.05"/>
  <path fill="#1658fd" d="M28.07 46.6c2.15-4.84 14.61-14.92 19.37-18.04 25.21-16.52 56.98-18.17 84.4-5.99-24.76 17.4-40.33 45.39-41.24 75.91-16.98 10.36-32.05 27.67-39.05 46.43-15.49-14.93-25.63-36.74-27.85-58.17-1.11-10.66 0-30.33 4.36-40.14Z"/>
</svg>
